<svg width="310" height="90" viewBox="0 0 310 90" fill="none" xmlns="http://www.w3.org/2000/svg">
<g clip-path="url(#clip0_3056_42)">
<path d="M55.0945 36.3106C55.0945 36.3106 56.3517 27.6582 61.6023 24.9959C66.8529 22.3336 67.7403 21.5201 70.4766 21.668C73.2868 21.742 74.6919 24.3303 74.6179 26.1052C74.544 27.8061 75.2095 38.4552 73.6565 41.6352C72.1035 44.8151 67.5924 51.3969 57.0912 56.2777C46.59 61.1586 44.963 59.8275 44.963 58.6442C44.963 57.461 50.8792 54.4289 53.7633 52.3583C56.6475 50.2876 61.6023 45.1849 62.12 42.8184C62.5637 40.4519 63.0813 38.3073 62.4897 38.6031C61.8981 38.8989 61.2325 41.857 60.567 42.5966C59.9014 43.3361 57.387 46.8118 54.6508 47.6993C51.8406 48.5867 51.0271 48.9565 51.1011 47.2556C51.175 45.5547 53.6894 42.0789 54.0592 40.8217C54.4289 39.4906 55.0945 36.4585 55.0945 36.4585" fill="#E27F99"/>
<path d="M25.8094 36.3106C25.8094 36.3106 24.5522 27.6582 19.3015 24.9959C14.0509 22.3336 13.1635 21.5201 10.4273 21.668C7.61707 21.742 6.21198 24.3303 6.28593 26.1052C6.35988 27.8061 5.69431 38.4552 7.24731 41.6352C8.80031 44.8151 13.3114 51.3969 23.8126 56.2777C34.3139 61.1586 35.9408 59.8275 35.9408 58.6442C35.9408 57.461 30.0246 54.4289 27.1405 52.3583C24.2564 50.2876 19.3015 45.1849 18.7839 42.8184C18.3402 40.4519 17.8225 38.3073 18.4141 38.6031C19.0057 38.8989 19.6713 41.857 20.3369 42.5966C21.0024 43.3361 23.5168 46.8118 26.2531 47.6993C29.0633 48.5867 29.8767 48.9565 29.8028 47.2556C29.7288 45.5547 27.2144 42.0789 26.8447 40.8217C26.4749 39.4906 25.8094 36.4585 25.8094 36.4585" fill="#E27F99"/>
<path d="M55.1685 35.4971C55.1685 35.4971 56.4256 26.8447 61.6763 24.1824C66.9269 21.5201 67.8143 20.7067 70.5505 20.8546C73.3607 20.9285 74.7658 23.5169 74.6919 25.2917C74.6179 26.9926 75.2835 37.6418 73.7305 40.8217C72.1775 44.0017 67.6664 50.5834 57.1652 55.4643C46.6639 60.3451 45.037 59.014 45.037 57.8307C45.037 56.6475 50.9532 53.6155 53.8373 51.5448C56.7215 49.4741 61.6763 44.3714 62.1939 42.0049C62.6376 39.6385 63.1553 37.4938 62.5637 37.7897C61.9721 38.0855 61.3065 41.0436 60.6409 41.7831C59.9754 42.5226 57.461 45.9984 54.7247 46.8858C51.9146 47.7732 51.1011 48.143 51.175 46.4421C51.249 44.7412 53.7634 41.2654 54.1331 40.0082C54.5029 38.6771 55.1685 35.645 55.1685 35.645" fill="#E27F99"/>
<path d="M25.8094 35.4971C25.8094 35.4971 24.5522 26.8447 19.3015 24.1824C14.0509 21.5201 13.1635 20.7067 10.4273 20.8546C7.61707 20.9285 6.21198 23.5169 6.28593 25.2917C6.35988 26.9926 5.69431 37.6418 7.24731 40.8217C8.80031 44.0017 13.3114 50.5834 23.8126 55.4643C34.3139 60.3451 35.9408 59.014 35.9408 57.8307C35.9408 56.6475 30.0246 53.6155 27.1405 51.5448C24.2564 49.4741 19.3015 44.3714 18.7839 42.0049C18.3402 39.6385 17.8225 37.4938 18.4141 37.7897C19.0057 38.0855 19.6713 41.0436 20.3369 41.7831C21.0024 42.5226 23.5168 45.9984 26.2531 46.8858C29.0633 47.7732 29.8767 48.143 29.8028 46.4421C29.7288 44.7412 27.2144 41.2654 26.8447 40.0082C26.4749 38.6771 25.8094 35.645 25.8094 35.645" fill="#E27F99"/>
<path d="M33.9441 30.5422C34.4618 30.5422 34.9795 30.2464 35.3492 29.9506C35.7929 29.5069 36.0888 28.9153 36.0148 28.1757C35.9408 26.9925 34.8316 26.0311 33.6483 26.1051C32.7609 26.1051 32.0953 26.6967 31.7995 27.5102C31.6516 27.806 31.6516 28.1757 31.6516 28.4715C31.7256 29.6548 32.8348 30.6162 34.0181 30.5422" fill="#E27F99"/>
<path d="M36.0148 33.2787C36.8282 31.5778 40.5998 33.8703 40.5998 33.8703C40.5998 33.8703 40.0082 33.0568 39.1947 32.2433C37.9375 31.0601 36.1627 29.8029 34.5357 30.9122C31.7255 33.5745 34.3139 36.8284 36.9761 39.1209C38.6031 40.526 40.304 41.5613 40.8217 41.8571C40.6738 41.7092 40.5259 41.5613 40.378 41.4134C38.751 40.0823 34.7576 36.2368 36.0148 33.2787Z" fill="#E27F99"/>
<path d="M49.2523 25.7354C49.1783 24.3303 47.9212 23.295 46.5161 23.369C45.4807 23.4429 44.5933 24.1085 44.2975 25.0699C44.2975 25.1438 44.2975 25.2178 44.2975 25.2917C44.3714 26.6968 45.6286 27.7321 47.0337 27.6582C48.0691 27.5842 48.9565 26.9187 49.2523 25.9573C49.2523 25.8833 49.2523 25.8094 49.2523 25.7354Z" fill="#E27F99"/>
<path d="M46.516 28.1759C42.4487 26.1792 40.5999 33.7963 40.5999 33.7963C40.8957 33.4266 44.0017 29.8769 45.2589 31.208C47.5514 34.3879 41.2654 41.6353 41.0436 41.9311C41.1915 41.7832 41.3394 41.7092 41.5612 41.5613C43.2621 40.1562 45.6286 37.9377 46.9598 35.6451C48.6607 33.0568 49.3262 30.1727 46.59 28.2499" fill="#E27F99"/>
<path d="M55.2424 29.7287V22.7032C54.8727 23.073 54.5768 23.3688 54.2071 23.7386H58.4224C59.2358 23.7386 59.8275 22.5553 59.1619 22.0377C55.834 19.4493 52.5062 16.861 49.1044 14.1987C47.0337 12.6457 45.037 11.0188 42.9663 9.46578C42.0049 8.72625 40.7478 7.32116 39.4166 8.13464C37.3459 9.46578 35.4232 11.0927 33.5004 12.4978C34.0181 12.7936 34.5358 13.0894 34.9795 13.3853V10.1313C34.9795 9.61368 34.5358 9.09602 33.9441 9.09602H30.0986C29.581 9.09602 29.0633 9.53973 29.0633 10.1313V16.1954C29.1372 15.9736 29.2851 15.7517 29.3591 15.4559C26.7708 17.6005 24.1824 19.7452 21.5201 21.9637C20.8546 22.5553 21.4462 23.6646 22.2597 23.6646H26.475C26.1052 23.2949 25.8094 22.9991 25.4396 22.6293V29.6548C25.4396 30.912 27.4363 30.9859 27.4363 29.6548V22.6293C27.4363 22.1116 26.9926 21.594 26.401 21.594H22.1857C22.4076 22.1856 22.6294 22.7032 22.9252 23.2949C24.774 21.8158 26.5489 20.2628 28.3977 18.7838C29.1372 18.1922 30.0247 17.6005 30.6902 16.861C31.2819 16.1954 31.06 14.8643 31.06 14.0508V10.0574C30.6902 10.4272 30.3944 10.723 30.0247 11.0927H33.8702C33.5004 10.723 33.2046 10.4272 32.8349 10.0574V13.3113C32.8349 13.9769 33.7223 14.6424 34.3139 14.1987C35.4232 13.3853 36.5325 12.5718 37.5678 11.7583C38.2334 11.2406 38.9729 10.723 39.6385 10.2053C39.8603 10.0574 40.0822 9.90949 40.2301 9.76159L40.378 9.68764C40.378 9.68764 39.7864 9.83554 40.0082 9.83554C40.0822 9.83554 40.2301 9.83554 40.304 9.83554C40.0822 9.76159 39.8603 9.61368 39.5645 9.53973C44.7412 13.6071 49.9918 17.6005 55.1685 21.6679C55.908 22.2595 56.6475 22.8512 57.387 23.3688C57.6089 22.7772 57.8307 22.2595 58.1266 21.6679H53.9113C53.3936 21.6679 52.8759 22.1116 52.8759 22.7032V29.7287C52.8759 30.9859 54.8727 31.0599 54.8727 29.7287" fill="#E27F99"/>
<path d="M103.903 55.76C103.533 54.9465 103.237 54.059 103.016 53.1716C102.794 52.2842 102.572 51.3228 102.498 50.3614C101.537 52.1363 100.205 53.5414 98.5785 54.7246C96.9515 55.9079 95.0288 56.4255 92.7362 56.4255C88.9647 56.4255 86.0805 55.4641 84.0099 53.5414C81.9392 51.6186 80.9778 48.9563 80.9778 45.6285C80.9778 42.3006 82.309 39.4165 85.0452 37.4198C87.7814 35.497 91.7009 34.5356 96.8776 34.5356H102.35V31.6515C102.35 29.9506 101.906 28.6194 101.019 27.6581C100.131 26.6967 98.7264 26.253 96.9515 26.253C95.1767 26.253 94.1413 26.6227 93.3279 27.3623C92.4404 28.1018 92.0707 29.1371 92.0707 30.4683H82.7527V30.2464C82.5308 27.2143 83.862 24.626 86.6721 22.4074C89.4823 20.1889 93.106 19.0796 97.6171 19.0796C102.128 19.0796 105.456 20.1889 108.118 22.3335C110.781 24.4781 112.112 27.5841 112.112 31.6515V46.5159C112.112 48.2168 112.26 49.7698 112.482 51.2489C112.703 52.7279 113.147 54.207 113.665 55.686H103.977L103.903 55.76ZM95.1027 49.2521C96.8036 49.2521 98.2827 48.8084 99.6138 47.995C100.945 47.1815 101.832 46.1461 102.35 45.0369V39.9342H96.8776C94.8069 39.9342 93.2539 40.4518 92.2186 41.4871C91.1832 42.5225 90.6656 43.7797 90.6656 45.2587C90.6656 46.7378 91.0353 47.4773 91.8488 48.1429C92.6623 48.8824 93.6976 49.2521 95.1027 49.2521Z" fill="#E27F99"/>
<path d="M130.008 55.7599H120.32V47.2554H130.008V55.7599Z" fill="#E27F99"/>
<path d="M158.48 45.7764C158.48 44.7411 157.962 43.7797 156.927 43.0402C155.892 42.3006 153.969 41.6351 151.233 41.0435C147.017 40.23 143.837 38.8988 141.619 37.1979C139.474 35.497 138.365 33.2045 138.365 30.2464C138.365 27.2883 139.696 24.5521 142.284 22.4075C144.873 20.2628 148.348 19.1536 152.712 19.1536C157.075 19.1536 160.92 20.2628 163.583 22.4075C166.319 24.5521 167.65 27.2883 167.502 30.5422V30.7641H158.11C158.11 29.359 157.666 28.1757 156.705 27.2144C155.744 26.3269 154.412 25.8832 152.712 25.8832C151.011 25.8832 149.901 26.253 149.014 27.0665C148.127 27.806 147.683 28.7674 147.683 29.9506C147.683 31.1338 148.127 31.9473 149.088 32.6868C150.049 33.3524 151.972 34.018 154.782 34.5357C159.219 35.4231 162.473 36.7542 164.618 38.4551C166.763 40.156 167.872 42.5225 167.872 45.5545C167.872 48.5866 166.467 51.3968 163.73 53.4675C160.994 55.5381 157.297 56.5734 152.786 56.5734C148.274 56.5734 144.207 55.3902 141.471 52.9498C138.661 50.5094 137.403 47.7731 137.477 44.6671V44.4453H146.426C146.426 46.368 147.091 47.7731 148.348 48.6605C149.532 49.548 151.085 49.9917 153.007 49.9917C154.93 49.9917 156.187 49.6219 157.075 48.8824C158.036 48.1429 158.48 47.1815 158.48 45.9243V45.7764Z" fill="#E27F99"/>
<path d="M184.881 55.7599H175.193V47.2554H184.881V55.7599Z" fill="#E27F99"/>
<path d="M215.053 55.76C214.684 54.9465 214.388 54.059 214.166 53.1716C213.944 52.2842 213.722 51.3228 213.648 50.3614C212.687 52.1363 211.356 53.5414 209.729 54.7246C208.102 55.9079 206.179 56.4255 203.887 56.4255C200.115 56.4255 197.231 55.4641 195.16 53.5414C193.09 51.6186 192.128 48.9563 192.128 45.6285C192.128 42.3006 193.459 39.4165 196.196 37.4198C198.932 35.497 202.851 34.5356 208.028 34.5356H213.5V31.6515C213.5 29.9506 213.057 28.6194 212.169 27.6581C211.282 26.6967 209.877 26.253 208.102 26.253C206.327 26.253 205.292 26.6227 204.478 27.3623C203.591 28.1018 203.221 29.1371 203.221 30.4683H193.903V30.2464C193.681 27.2143 195.012 24.626 197.823 22.4074C200.633 20.1889 204.256 19.0796 208.767 19.0796C213.279 19.0796 216.606 20.1889 219.269 22.3335C221.931 24.4781 223.262 27.5841 223.262 31.6515V46.5159C223.262 48.2168 223.41 49.7698 223.632 51.2489C223.854 52.7279 224.297 54.207 224.815 55.686H215.127L215.053 55.76ZM206.253 49.2521C207.954 49.2521 209.433 48.8084 210.764 47.995C212.095 47.1815 212.983 46.1461 213.5 45.0369V39.9342H208.028C205.957 39.9342 204.404 40.4518 203.369 41.4871C202.334 42.5225 201.816 43.7797 201.816 45.2587C201.816 46.7378 202.186 47.4773 202.999 48.1429C203.813 48.8824 204.848 49.2521 206.253 49.2521Z" fill="#E27F99"/>
<path d="M241.159 55.7599H231.471V47.2554H241.159V55.7599Z" fill="#E27F99"/>
<path d="M282.572 38.7509C282.572 44.0755 281.315 48.3647 278.874 51.5447C276.434 54.7986 272.958 56.4255 268.595 56.4255C264.232 56.4255 265.045 56.0558 263.566 55.3902C262.087 54.7246 260.83 53.6893 259.795 52.2842V69.5151H250.107V19.8191H258.833L259.425 24.0344C260.46 22.4814 261.791 21.2242 263.27 20.4108C264.749 19.5233 266.524 19.1536 268.521 19.1536C272.958 19.1536 276.434 20.9284 278.874 24.3302C281.315 27.806 282.572 32.391 282.572 38.0114V38.677V38.7509ZM272.884 38.0854C272.884 34.6836 272.293 31.9473 271.183 29.8767C270.074 27.806 268.299 26.6967 266.007 26.6967C263.714 26.6967 263.27 26.9925 262.235 27.5841C261.2 28.1758 260.386 29.0632 259.795 30.1725V45.9243C260.386 46.9596 261.2 47.6992 262.235 48.2168C263.27 48.7345 264.528 49.0303 266.007 49.0303C268.373 49.0303 270.074 48.1429 271.183 46.2941C272.293 44.4453 272.81 41.9309 272.81 38.8249V38.1593L272.884 38.0854Z" fill="#E27F99"/>
<path d="M299.359 55.7599H289.671V47.2554H299.359V55.7599Z" fill="#E27F99"/>
<path d="M299.951 64.4126H265.119V65.4479H299.951V64.4126Z" fill="#EFBCC6"/>
<path d="M245.596 64.4126H5.84222V65.4479H245.596V64.4126Z" fill="#EFBCC6"/>
<path d="M14.7165 85.0453V78.9812H8.94823V85.0453H6.87756V70.9944H8.94823V77.0585H14.7165V70.9944H16.7872V85.0453H14.7165Z" fill="#E27F99"/>
<path d="M27.8061 85.3411C23.8866 85.3411 20.6327 82.0132 20.6327 78.2417C20.6327 74.4701 23.9605 70.8464 27.88 70.8464C31.7995 70.8464 35.2013 74.1003 35.2013 78.0198C35.2013 81.9393 31.9474 85.415 27.8061 85.415V85.3411ZM33.1306 78.0938C33.1306 75.2096 30.9121 72.6213 27.954 72.6213C24.9959 72.6213 22.6294 75.8752 22.6294 77.9459C22.6294 80.0165 24.7001 83.4183 27.88 83.4183C31.06 83.4183 33.1306 80.6081 33.1306 78.0938Z" fill="#E27F99"/>
<path d="M51.9145 85.0453V73.213L47.1816 85.0453H45.9244L41.1915 73.213V85.0453H39.1208V70.9944H42.3747L46.59 81.7175L50.8053 70.9944H54.0592V85.0453H51.9885H51.9145Z" fill="#E27F99"/>
<path d="M58.2744 85.0453V70.9944H65.8176V72.8432H60.2711V76.9845H65.8176V78.8333H60.2711V83.1226H65.8176V84.9714H58.2744V85.0453Z" fill="#E27F99"/>
<path d="M85.1191 85.0453V78.9812H79.3508V85.0453H77.2802V70.9944H79.3508V77.0585H85.1191V70.9944H87.1898V85.0453H85.1191Z" fill="#E27F99"/>
<path d="M91.553 85.0453V70.9944H99.0961V72.8432H93.5497V76.9845H99.0961V78.8333H93.5497V83.1226H99.0961V84.9714H91.553V85.0453Z" fill="#E27F99"/>
<path d="M112.408 85.0453L110.855 80.904H105.826L104.273 85.0453H102.128L107.453 70.9944H109.302L114.626 85.0453H112.482H112.408ZM108.34 73.7306L106.565 79.1291H110.189L108.414 73.7306H108.34Z" fill="#E27F99"/>
<path d="M118.028 85.0453V70.9944H120.099V83.1226H124.979V84.9714H118.028V85.0453Z" fill="#E27F99"/>
<path d="M128.603 85.0454V72.9172H125.941V71.0684H133.336V72.9172H130.674V85.0454H128.603Z" fill="#E27F99"/>
<path d="M144.429 85.0453V78.9812H138.661V85.0453H136.59V70.9944H138.661V77.0585H144.429V70.9944H146.5V85.0453H144.429Z" fill="#E27F99"/>
<path d="M163.509 74.6919C163.509 73.4347 162.695 72.6952 161.512 72.6952C160.329 72.6952 159.663 73.5827 159.663 74.618C159.663 75.6533 160.329 76.171 161.66 76.6147C164.692 77.5761 165.801 78.6854 165.801 81.1258C165.801 83.5662 163.952 85.3411 161.512 85.3411C159.071 85.3411 157.223 83.5662 157.223 80.9039H159.293C159.293 82.383 160.181 83.4183 161.586 83.4183C162.991 83.4183 163.804 82.4569 163.804 81.0518C163.804 79.6467 163.361 79.3509 161.882 78.9072C158.406 77.724 157.666 76.6147 157.666 74.618C157.666 72.6213 159.441 70.7725 161.586 70.7725C163.73 70.7725 165.579 72.2515 165.579 74.6919H163.509Z" fill="#E27F99"/>
<path d="M169.277 85.0453V70.9944H176.82V72.8432H171.274V76.9845H176.82V78.8333H171.274V83.1226H176.82V84.9714H169.277V85.0453Z" fill="#E27F99"/>
<path d="M187.543 85.0453L182.884 78.5375V85.0453H180.813V70.9944H185.325C188.726 70.9944 190.205 72.7692 190.205 75.6534C190.205 78.5375 188.135 79.7208 186.212 79.7947L190.131 85.0453H187.543ZM184.363 78.3157C186.73 78.3157 188.135 77.3543 188.135 75.5794C188.135 73.8046 186.878 72.9911 185.029 72.9911H182.884V78.3157H184.363Z" fill="#E27F99"/>
<path d="M198.266 85.0453L192.646 70.9944H194.864L198.932 81.4956L202.999 70.9944H205.144L199.523 85.0453H198.266Z" fill="#E27F99"/>
<path d="M208.472 85.0453V70.9944H210.542V85.0453H208.472Z" fill="#E27F99"/>
<path d="M227.921 81.5695C226.516 84.0099 224.224 85.2671 221.413 85.2671C218.603 85.2671 214.314 81.7913 214.314 78.0198C214.314 74.2482 217.642 70.6985 221.413 70.6985C225.185 70.6985 226.516 71.8817 227.995 74.544H225.555C224.519 73.2868 223.262 72.5473 221.635 72.5473C218.677 72.5473 216.459 75.0617 216.459 77.7979C216.459 80.5341 218.677 83.3443 221.561 83.3443C224.445 83.3443 224.297 82.7527 225.481 81.4955H227.995L227.921 81.5695Z" fill="#E27F99"/>
<path d="M231.397 85.0453V70.9944H238.94V72.8432H233.394V76.9845H238.94V78.8333H233.394V83.1226H238.94V84.9714H231.397V85.0453Z" fill="#E27F99"/>
<path d="M248.332 74.6919C248.332 73.4347 247.519 72.6952 246.335 72.6952C245.152 72.6952 244.486 73.5827 244.486 74.618C244.486 75.6533 245.152 76.171 246.483 76.6147C249.515 77.5761 250.624 78.6854 250.624 81.1258C250.624 83.5662 248.776 85.3411 246.335 85.3411C243.895 85.3411 242.046 83.5662 242.046 80.9039H244.117C244.117 82.383 245.004 83.4183 246.409 83.4183C247.814 83.4183 248.628 82.4569 248.628 81.0518C248.628 79.6467 248.184 79.3509 246.705 78.9072C243.229 77.724 242.49 76.6147 242.49 74.618C242.49 72.6213 244.265 70.7725 246.409 70.7725C248.554 70.7725 250.403 72.2515 250.403 74.6919H248.332Z" fill="#E27F99"/>
<path d="M261.569 85.0453V70.9944H263.64V85.0453H261.569Z" fill="#E27F99"/>
<path d="M277.173 85.0453L270.222 74.1743V85.0453H268.151V70.9944H270.37L277.173 81.6435V70.9944H279.244V85.0453H277.099H277.173Z" fill="#E27F99"/>
<path d="M296.697 81.5695C295.292 84.0099 292.999 85.2671 290.189 85.2671C287.379 85.2671 283.09 81.7913 283.09 78.0198C283.09 74.2482 286.417 70.6985 290.189 70.6985C293.961 70.6985 295.292 71.8817 296.771 74.544H294.33C293.295 73.2868 292.038 72.5473 290.411 72.5473C287.453 72.5473 285.234 75.0617 285.234 77.7979C285.234 80.5341 287.453 83.3443 290.337 83.3443C293.221 83.3443 293.073 82.7527 294.256 81.4955H296.771L296.697 81.5695Z" fill="#E27F99"/>
<path d="M300.616 85.0452V82.7527H302.613V85.0452H300.616Z" fill="#E27F99"/>
</g>
<defs>
<clipPath id="clip0_3056_42">
<rect width="309.269" height="90" fill="white"/>
</clipPath>
</defs>
</svg>

