<?xml version="1.0" encoding="UTF-8"?>
<svg id="Layer_1" xmlns="http://www.w3.org/2000/svg" version="1.1" viewBox="0 0 418.2 121.7">
  <!-- Generator: Adobe Illustrator 29.8.2, SVG Export Plug-In . SVG Version: 2.1.1 Build 3)  -->
  <defs>
    <style>
      .st0 {
        font-family: Roboto-Bold, Roboto;
        font-size: 91.9px;
        font-weight: 700;
      }

      .st0, .st1, .st2 {
        fill: #e27f99;
      }

      .st2 {
        font-family: ITCAvantGardePro-Md, 'ITC Avant Garde Gothic Pro';
        font-size: 25.6px;
        font-weight: 500;
        letter-spacing: 0em;
      }

      .st3 {
        fill: #efbcc6;
      }
    </style>
  </defs>
  <path class="st1" d="M74.5,49.1s1.7-11.7,8.8-15.3c7.1-3.6,8.3-4.7,12-4.5,3.8.1,5.7,3.6,5.6,6-.1,2.3.8,16.7-1.3,21-2.1,4.3-8.2,13.2-22.4,19.8-14.2,6.6-16.4,4.8-16.4,3.2s8-5.7,11.9-8.5c3.9-2.8,10.6-9.7,11.3-12.9.6-3.2,1.3-6.1.5-5.7-.8.4-1.7,4.4-2.6,5.4-.9,1-4.3,5.7-8,6.9-3.8,1.2-4.9,1.7-4.8-.6.1-2.3,3.5-7,4-8.7.5-1.8,1.4-5.9,1.4-5.9"/>
  <path class="st1" d="M34.9,49.1s-1.7-11.7-8.8-15.3c-7.1-3.6-8.3-4.7-12-4.5-3.8.1-5.7,3.6-5.6,6,.1,2.3-.8,16.7,1.3,21,2.1,4.3,8.2,13.2,22.4,19.8,14.2,6.6,16.4,4.8,16.4,3.2s-8-5.7-11.9-8.5c-3.9-2.8-10.6-9.7-11.3-12.9-.6-3.2-1.3-6.1-.5-5.7.8.4,1.7,4.4,2.6,5.4s4.3,5.7,8,6.9c3.8,1.2,4.9,1.7,4.8-.6-.1-2.3-3.5-7-4-8.7-.5-1.8-1.4-5.9-1.4-5.9"/>
  <path class="st1" d="M74.6,48s1.7-11.7,8.8-15.3c7.1-3.6,8.3-4.7,12-4.5,3.8.1,5.7,3.6,5.6,6-.1,2.3.8,16.7-1.3,21-2.1,4.3-8.2,13.2-22.4,19.8-14.2,6.6-16.4,4.8-16.4,3.2s8-5.7,11.9-8.5c3.9-2.8,10.6-9.7,11.3-12.9.6-3.2,1.3-6.1.5-5.7-.8.4-1.7,4.4-2.6,5.4-.9,1-4.3,5.7-8,6.9-3.8,1.2-4.9,1.7-4.8-.6.1-2.3,3.5-7,4-8.7.5-1.8,1.4-5.9,1.4-5.9"/>
  <path class="st1" d="M34.9,48s-1.7-11.7-8.8-15.3c-7.1-3.6-8.3-4.7-12-4.5-3.8.1-5.7,3.6-5.6,6,.1,2.3-.8,16.7,1.3,21,2.1,4.3,8.2,13.2,22.4,19.8,14.2,6.6,16.4,4.8,16.4,3.2s-8-5.7-11.9-8.5c-3.9-2.8-10.6-9.7-11.3-12.9-.6-3.2-1.3-6.1-.5-5.7.8.4,1.7,4.4,2.6,5.4.9,1,4.3,5.7,8,6.9,3.8,1.2,4.9,1.7,4.8-.6-.1-2.3-3.5-7-4-8.7-.5-1.8-1.4-5.9-1.4-5.9"/>
  <path class="st1" d="M45.9,41.3c.7,0,1.4-.4,1.9-.8.6-.6,1-1.4.9-2.4-.1-1.6-1.6-2.9-3.2-2.8-1.2,0-2.1.8-2.5,1.9-.2.4-.2.9-.2,1.3.1,1.6,1.6,2.9,3.2,2.8"/>
  <path class="st1" d="M48.7,45c1.1-2.3,6.2.8,6.2.8,0,0-.8-1.1-1.9-2.2-1.7-1.6-4.1-3.3-6.3-1.8-3.8,3.6-.3,8,3.3,11.1,2.2,1.9,4.5,3.3,5.2,3.7-.2-.2-.4-.4-.6-.6-2.2-1.8-7.6-7-5.9-11"/>
  <path class="st1" d="M66.6,34.8c-.1-1.9-1.8-3.3-3.7-3.2-1.4.1-2.6,1-3,2.3,0,.1,0,.2,0,.3.1,1.9,1.8,3.3,3.7,3.2,1.4-.1,2.6-1,3-2.3,0-.1,0-.2,0-.3"/>
  <path class="st1" d="M62.9,38.1c-5.5-2.7-8,7.6-8,7.6,0,0,0,0,0,0,.4-.5,4.6-5.3,6.3-3.5,3.1,4.3-5.4,14.1-5.7,14.5.2-.2.4-.3.7-.5,2.3-1.9,5.5-4.9,7.3-8,2.3-3.5,3.2-7.4-.5-10"/>
  <path class="st1" d="M74.7,40.2v-9.5c-.5.5-.9.9-1.4,1.4h5.7c1.1,0,1.9-1.6,1-2.3-4.5-3.5-9-7-13.6-10.6-2.8-2.1-5.5-4.3-8.3-6.4-1.3-1-3-2.9-4.8-1.8-2.8,1.8-5.4,4-8,5.9.7.4,1.4.8,2,1.2v-4.4c0-.7-.6-1.4-1.4-1.4h-5.2c-.7,0-1.4.6-1.4,1.4v8.2c.1-.3.3-.6.4-1-3.5,2.9-7,5.8-10.6,8.8-.9.8-.1,2.3,1,2.3h5.7c-.5-.5-.9-.9-1.4-1.4v9.5c0,1.7,2.7,1.8,2.7,0v-9.5c0-.7-.6-1.4-1.4-1.4h-5.7c.3.8.6,1.5,1,2.3,2.5-2,4.9-4.1,7.4-6.1,1-.8,2.2-1.6,3.1-2.6.8-.9.5-2.7.5-3.8v-5.4c-.5.5-.9.9-1.4,1.4h5.2c-.5-.5-.9-.9-1.4-1.4v4.4c0,.9,1.2,1.8,2,1.2,1.5-1.1,3-2.2,4.4-3.3.9-.7,1.9-1.4,2.8-2.1.3-.2.6-.4.8-.6,0,0,.2-.1.2-.1,0,0-.8.2-.5.2.1,0,.3,0,.4,0-.3-.1-.6-.3-1-.4,7,5.5,14.1,10.9,21.1,16.4,1,.8,2,1.6,3,2.3.3-.8.6-1.5,1-2.3h-5.7c-.7,0-1.4.6-1.4,1.4v9.5c0,1.7,2.7,1.8,2.7,0"/>
  <g>
    <path class="st1" d="M140.5,75.4c-.5-1.1-.9-2.3-1.2-3.5-.3-1.2-.6-2.5-.7-3.8-1.3,2.4-3.1,4.3-5.3,5.9-2.2,1.6-4.8,2.3-7.9,2.3-5.1,0-9-1.3-11.8-3.9-2.8-2.6-4.1-6.2-4.1-10.7s1.8-8.4,5.5-11.1c3.7-2.6,9-3.9,16-3.9h7.4v-3.9c0-2.3-.6-4.1-1.8-5.4-1.2-1.3-3.1-1.9-5.5-1.9s-3.8.5-4.9,1.5c-1.2,1-1.7,2.4-1.7,4.2h-12.6v-.3c-.3-4.1,1.5-7.6,5.3-10.6,3.8-3,8.7-4.5,14.8-4.5s10.6,1.5,14.2,4.4c3.6,2.9,5.4,7.1,5.4,12.6v20.1c0,2.3.2,4.4.5,6.4.3,2,.9,4,1.6,6h-13.1ZM128.6,66.6c2.3,0,4.3-.6,6.1-1.7,1.8-1.1,3-2.5,3.7-4v-6.9h-7.4c-2.8,0-4.9.7-6.3,2.1-1.4,1.4-2.1,3.1-2.1,5.1s.5,3,1.6,3.9c1.1,1,2.5,1.5,4.4,1.5Z"/>
    <path class="st1" d="M175.8,75.4h-13.1v-11.5h13.1v11.5Z"/>
    <path class="st1" d="M214.3,61.9c0-1.4-.7-2.7-2.1-3.7-1.4-1-4-1.9-7.7-2.7-5.7-1.1-10-2.9-13-5.2-2.9-2.3-4.4-5.4-4.4-9.4s1.8-7.7,5.3-10.6c3.5-2.9,8.2-4.4,14.1-4.4s11.1,1.5,14.7,4.4c3.7,2.9,5.5,6.6,5.3,11v.3h-12.7c0-1.9-.6-3.5-1.9-4.8-1.3-1.2-3.1-1.8-5.4-1.8s-3.8.5-5,1.6c-1.2,1-1.8,2.3-1.8,3.9s.6,2.7,1.9,3.7c1.3.9,3.9,1.8,7.7,2.5,6,1.2,10.4,3,13.3,5.3,2.9,2.3,4.4,5.5,4.4,9.6s-1.9,7.9-5.6,10.7c-3.7,2.8-8.7,4.2-14.8,4.2s-11.6-1.6-15.3-4.9c-3.8-3.3-5.5-7-5.4-11.2v-.3h12.1c0,2.6.9,4.5,2.6,5.7,1.6,1.2,3.7,1.8,6.3,1.8s4.3-.5,5.5-1.5c1.3-1,1.9-2.3,1.9-4Z"/>
    <path class="st1" d="M250,75.4h-13.1v-11.5h13.1v11.5Z"/>
    <path class="st1" d="M290.8,75.4c-.5-1.1-.9-2.3-1.2-3.5-.3-1.2-.6-2.5-.7-3.8-1.3,2.4-3.1,4.3-5.3,5.9-2.2,1.6-4.8,2.3-7.9,2.3-5.1,0-9-1.3-11.8-3.9-2.8-2.6-4.1-6.2-4.1-10.7s1.8-8.4,5.5-11.1c3.7-2.6,9-3.9,16-3.9h7.4v-3.9c0-2.3-.6-4.1-1.8-5.4-1.2-1.3-3.1-1.9-5.5-1.9s-3.8.5-4.9,1.5c-1.2,1-1.7,2.4-1.7,4.2h-12.6v-.3c-.3-4.1,1.5-7.6,5.3-10.6,3.8-3,8.7-4.5,14.8-4.5s10.6,1.5,14.2,4.4c3.6,2.9,5.4,7.1,5.4,12.6v20.1c0,2.3.2,4.4.5,6.4.3,2,.9,4,1.6,6h-13.1ZM278.9,66.6c2.3,0,4.3-.6,6.1-1.7,1.8-1.1,3-2.5,3.7-4v-6.9h-7.4c-2.8,0-4.9.7-6.3,2.1-1.4,1.4-2.1,3.1-2.1,5.1s.5,3,1.6,3.9c1.1,1,2.5,1.5,4.4,1.5Z"/>
    <path class="st1" d="M326.1,75.4h-13.1v-11.5h13.1v11.5Z"/>
    <path class="st1" d="M382.1,52.4c0,7.2-1.7,13-5,17.3-3.3,4.4-8,6.6-13.9,6.6s-4.8-.5-6.8-1.4c-2-.9-3.7-2.3-5.1-4.2v23.3h-13.1V26.8h11.8l.8,5.7c1.4-2.1,3.2-3.8,5.2-4.9,2-1.2,4.4-1.7,7.1-1.7,6,0,10.7,2.4,14,7,3.3,4.7,5,10.9,5,18.5v.9ZM369,51.5c0-4.6-.8-8.3-2.3-11.1-1.5-2.8-3.9-4.3-7-4.3s-3.7.4-5.1,1.2c-1.4.8-2.5,2-3.3,3.5v21.3c.8,1.4,1.9,2.4,3.3,3.1s3.1,1.1,5.1,1.1c3.2,0,5.5-1.2,7-3.7,1.5-2.5,2.2-5.9,2.2-10.1v-.9Z"/>
    <path class="st1" d="M404.8,75.4h-13.1v-11.5h13.1v11.5Z"/>
  </g>
  <rect class="st3" x="358.5" y="87.1" width="47.1" height="1.4"/>
  <rect class="st3" x="7.9" y="87.1" width="324.2" height="1.4"/>
  <g>
    <path class="st1" d="M19.9,115v-8.2h-7.8v8.2h-2.8v-19h2.8v8.2h7.8v-8.2h2.8v19h-2.8Z"/>
    <path class="st1" d="M37.6,115.4c-5.3,0-9.7-4.5-9.7-9.6s4.5-10,9.8-10,9.9,4.4,9.9,9.7-4.4,10-10,10ZM44.8,105.6c0-3.9-3-7.4-7-7.4s-7.2,4.4-7.2,7.2,2.8,7.4,7.1,7.4,7.1-3.8,7.1-7.2Z"/>
    <path class="st1" d="M70.2,115v-16h0l-6.4,16h-1.7l-6.4-16h0v16h-2.8v-19h4.4l5.7,14.5,5.7-14.5h4.4v19h-2.8Z"/>
    <path class="st1" d="M78.8,115v-19h10.2v2.5h-7.5v5.6h7.5v2.5h-7.5v5.8h7.5v2.5h-10.2Z"/>
    <path class="st1" d="M115.1,115v-8.2h-7.8v8.2h-2.8v-19h2.8v8.2h7.8v-8.2h2.8v19h-2.8Z"/>
    <path class="st1" d="M123.8,115v-19h10.2v2.5h-7.5v5.6h7.5v2.5h-7.5v5.8h7.5v2.5h-10.2Z"/>
    <path class="st1" d="M152,115l-2.1-5.6h-6.8l-2.1,5.6h-2.9l7.2-19h2.5l7.2,19h-2.9ZM146.5,99.7h0l-2.4,7.3h4.9l-2.4-7.3Z"/>
    <path class="st1" d="M159.6,115v-19h2.8v16.4h6.6v2.5h-9.4Z"/>
    <path class="st1" d="M173.9,115v-16.4h-3.6v-2.5h10v2.5h-3.6v16.4h-2.8Z"/>
    <path class="st1" d="M195.3,115v-8.2h-7.8v8.2h-2.8v-19h2.8v8.2h7.8v-8.2h2.8v19h-2.8Z"/>
    <path class="st1" d="M221.1,101c0-1.7-1.1-2.7-2.7-2.7s-2.5,1.2-2.5,2.6.9,2.1,2.7,2.7c4.1,1.3,5.6,2.8,5.6,6.1s-2.5,5.7-5.8,5.7-5.8-2.4-5.8-6h2.8c0,2,1.2,3.4,3.1,3.4s3-1.3,3-3.2-.6-2.3-2.6-2.9c-4.7-1.6-5.7-3.1-5.7-5.8s2.4-5.2,5.3-5.2,5.4,2,5.4,5.3h-2.8Z"/>
    <path class="st1" d="M228.9,115v-19h10.2v2.5h-7.5v5.6h7.5v2.5h-7.5v5.8h7.5v2.5h-10.2Z"/>
    <path class="st1" d="M253.6,115l-6.3-8.8h0v8.8h-2.8v-19h6.1c4.6,0,6.6,2.4,6.6,6.3s-2.8,5.5-5.4,5.6l5.3,7.1h-3.5ZM249.3,105.9c3.2,0,5.1-1.3,5.1-3.7s-1.7-3.5-4.2-3.5h-2.9v7.2h2Z"/>
    <path class="st1" d="M268.1,115l-7.6-19h3l5.5,14.2,5.5-14.2h2.9l-7.6,19h-1.7Z"/>
    <path class="st1" d="M281.9,115v-19h2.8v19h-2.8Z"/>
    <path class="st1" d="M308.2,110.3c-1.9,3.3-5,5-8.8,5s-9.6-4.7-9.6-9.8,4.5-9.9,9.6-9.9,6.9,1.6,8.9,5.2h-3.3c-1.4-1.7-3.1-2.7-5.3-2.7-4,0-7,3.4-7,7.1s3,7.5,6.9,7.5,3.7-.8,5.3-2.5h3.4Z"/>
    <path class="st1" d="M312.9,115v-19h10.2v2.5h-7.5v5.6h7.5v2.5h-7.5v5.8h7.5v2.5h-10.2Z"/>
    <path class="st1" d="M335.8,101c0-1.7-1.1-2.7-2.7-2.7s-2.5,1.2-2.5,2.6.9,2.1,2.7,2.7c4.1,1.3,5.6,2.8,5.6,6.1s-2.5,5.7-5.8,5.7-5.8-2.4-5.8-6h2.8c0,2,1.2,3.4,3.1,3.4s3-1.3,3-3.2-.6-2.3-2.6-2.9c-4.7-1.6-5.7-3.1-5.7-5.8s2.4-5.2,5.3-5.2,5.4,2,5.4,5.3h-2.8Z"/>
    <path class="st1" d="M353.7,115v-19h2.8v19h-2.8Z"/>
    <path class="st1" d="M374.8,115l-9.4-14.7h0v14.7h-2.8v-19h3l9.2,14.4h0v-14.4h2.8v19h-2.9Z"/>
    <path class="st1" d="M401.2,110.3c-1.9,3.3-5,5-8.8,5s-9.6-4.7-9.6-9.8,4.5-9.9,9.6-9.9,6.9,1.6,8.9,5.2h-3.3c-1.4-1.7-3.1-2.7-5.3-2.7-4,0-7,3.4-7,7.1s3,7.5,6.9,7.5,3.7-.8,5.3-2.5h3.4Z"/>
    <path class="st1" d="M406.5,115v-3.1h2.7v3.1h-2.7Z"/>
  </g>
  <path class="st1" d="M74.5,205.5s1.7-11.7,8.8-15.3c7.1-3.6,8.3-4.7,12-4.5,3.8.1,5.7,3.6,5.6,6-.1,2.3.8,16.7-1.3,21-2.1,4.3-8.2,13.2-22.4,19.8-14.2,6.6-16.4,4.8-16.4,3.2s8-5.7,11.9-8.5c3.9-2.8,10.6-9.7,11.3-12.9.6-3.2,1.3-6.1.5-5.7-.8.4-1.7,4.4-2.6,5.4-.9,1-4.3,5.7-8,6.9-3.8,1.2-4.9,1.7-4.8-.6.1-2.3,3.5-7,4-8.7.5-1.8,1.4-5.9,1.4-5.9"/>
  <path class="st1" d="M34.9,205.5s-1.7-11.7-8.8-15.3c-7.1-3.6-8.3-4.7-12-4.5-3.8.1-5.7,3.6-5.6,6,.1,2.3-.8,16.7,1.3,21,2.1,4.3,8.2,13.2,22.4,19.8,14.2,6.6,16.4,4.8,16.4,3.2s-8-5.7-11.9-8.5c-3.9-2.8-10.6-9.7-11.3-12.9-.6-3.2-1.3-6.1-.5-5.7.8.4,1.7,4.4,2.6,5.4s4.3,5.7,8,6.9c3.8,1.2,4.9,1.7,4.8-.6-.1-2.3-3.5-7-4-8.7-.5-1.8-1.4-5.9-1.4-5.9"/>
  <path class="st1" d="M74.6,204.3s1.7-11.7,8.8-15.3c7.1-3.6,8.3-4.7,12-4.5,3.8.1,5.7,3.6,5.6,6-.1,2.3.8,16.7-1.3,21-2.1,4.3-8.2,13.2-22.4,19.8-14.2,6.6-16.4,4.8-16.4,3.2s8-5.7,11.9-8.5c3.9-2.8,10.6-9.7,11.3-12.9.6-3.2,1.3-6.1.5-5.7-.8.4-1.7,4.4-2.6,5.4-.9,1-4.3,5.7-8,6.9-3.8,1.2-4.9,1.7-4.8-.6.1-2.3,3.5-7,4-8.7.5-1.8,1.4-5.9,1.4-5.9"/>
  <path class="st1" d="M34.9,204.3s-1.7-11.7-8.8-15.3c-7.1-3.6-8.3-4.7-12-4.5-3.8.1-5.7,3.6-5.6,6,.1,2.3-.8,16.7,1.3,21,2.1,4.3,8.2,13.2,22.4,19.8,14.2,6.6,16.4,4.8,16.4,3.2s-8-5.7-11.9-8.5c-3.9-2.8-10.6-9.7-11.3-12.9-.6-3.2-1.3-6.1-.5-5.7.8.4,1.7,4.4,2.6,5.4.9,1,4.3,5.7,8,6.9,3.8,1.2,4.9,1.7,4.8-.6-.1-2.3-3.5-7-4-8.7-.5-1.8-1.4-5.9-1.4-5.9"/>
  <path class="st1" d="M45.9,197.6c.7,0,1.4-.4,1.9-.8.6-.6,1-1.4.9-2.4-.1-1.6-1.6-2.9-3.2-2.8-1.2,0-2.1.8-2.5,1.9-.2.4-.2.9-.2,1.3.1,1.6,1.6,2.9,3.2,2.8"/>
  <path class="st1" d="M48.7,201.3c1.1-2.3,6.2.8,6.2.8,0,0-.8-1.1-1.9-2.2-1.7-1.6-4.1-3.3-6.3-1.8-3.8,3.6-.3,8,3.3,11.1,2.2,1.9,4.5,3.3,5.2,3.7-.2-.2-.4-.4-.6-.6-2.2-1.8-7.6-7-5.9-11"/>
  <path class="st1" d="M66.6,191.2c-.1-1.9-1.8-3.3-3.7-3.2-1.4.1-2.6,1-3,2.3,0,.1,0,.2,0,.3.1,1.9,1.8,3.3,3.7,3.2,1.4-.1,2.6-1,3-2.3,0-.1,0-.2,0-.3"/>
  <path class="st1" d="M62.9,194.4c-5.5-2.7-8,7.6-8,7.6,0,0,0,0,0,0,.4-.5,4.6-5.3,6.3-3.5,3.1,4.3-5.4,14.1-5.7,14.5.2-.2.4-.3.7-.5,2.3-1.9,5.5-4.9,7.3-8,2.3-3.5,3.2-7.4-.5-10"/>
  <path class="st1" d="M74.7,196.5v-9.5c-.5.5-.9.9-1.4,1.4h5.7c1.1,0,1.9-1.6,1-2.3-4.5-3.5-9-7-13.6-10.6-2.8-2.1-5.5-4.3-8.3-6.4-1.3-1-3-2.9-4.8-1.8-2.8,1.8-5.4,4-8,5.9.7.4,1.4.8,2,1.2v-4.4c0-.7-.6-1.4-1.4-1.4h-5.2c-.7,0-1.4.6-1.4,1.4v8.2c.1-.3.3-.6.4-1-3.5,2.9-7,5.8-10.6,8.8-.9.8-.1,2.3,1,2.3h5.7c-.5-.5-.9-.9-1.4-1.4v9.5c0,1.7,2.7,1.8,2.7,0v-9.5c0-.7-.6-1.4-1.4-1.4h-5.7c.3.8.6,1.5,1,2.3,2.5-2,4.9-4.1,7.4-6.1,1-.8,2.2-1.6,3.1-2.6.8-.9.5-2.7.5-3.8v-5.4c-.5.5-.9.9-1.4,1.4h5.2c-.5-.5-.9-.9-1.4-1.4v4.4c0,.9,1.2,1.8,2,1.2,1.5-1.1,3-2.2,4.4-3.3.9-.7,1.9-1.4,2.8-2.1.3-.2.6-.4.8-.6,0,0,.2-.1.2-.1,0,0-.8.2-.5.2.1,0,.3,0,.4,0-.3-.1-.6-.3-1-.4,7,5.5,14.1,10.9,21.1,16.4,1,.8,2,1.6,3,2.3.3-.8.6-1.5,1-2.3h-5.7c-.7,0-1.4.6-1.4,1.4v9.5c0,1.7,2.7,1.8,2.7,0"/>
  <text class="st0" transform="translate(106.9 231.7)"><tspan x="0" y="0">a.s.a.p.</tspan></text>
  <rect class="st3" x="358.5" y="243.5" width="47.1" height="1.4"/>
  <rect class="st3" x="7.9" y="243.5" width="324.2" height="1.4"/>
  <text class="st2" transform="translate(7.4 271.4)"><tspan x="0" y="0">HOME HEALTH SERVICES INC.</tspan></text>
</svg>